:version 1.10
:name ASF
:units
  mass 1
  length 1
  angle deg
:documentation
  ASF file generated by Kaydara
:root
  axis xyz
  order  tx ty tz rx ry rz
  position 0 0 0
  orientation 0 0 0
:bonedata
  begin
    id 1
    name RightUpLegDummy
    direction -1 2.30186e-007 8.31532e-007
    length 4.46685
    axis 0 0 0 xyz
  end
  begin
    id 2
    name RightUpLeg
    direction -2.30187e-007 -1 1.24343e-010
    length 16.4045
    axis -3.49089 -0.000906625 0.000286804 xyz
    dof rx ry rz
  end
  begin
    id 3
    name RightLeg
    direction -2.30181e-007 -1 -4.17157e-009
    length 17.5097
    axis 3.68512 0.0193738 -0.131023 xyz
    dof rx ry rz
  end
  begin
    id 4
    name RightFoot
    direction 8.31421e-007 -4.51202e-011 1
    length 6.49508
    axis 4.81691e-005 -0.120479 -0.188788 xyz
    dof rx ry rz
  end
  begin
    id 5
    name RightToes
    direction 0.00124746 -0.014064 0.9999
    length 3.85082
    axis 0.000481921 0.542163 -0.142578 xyz
    dof rx ry rz
  end
  begin
    id 6
    name SpineDummy
    direction 0.0717043 0.9409 -0.331007
    length 10.0032
    axis 0 0 0 xyz
  end
  begin
    id 7
    name Spine
    direction 2.30186e-007 1 4.58806e-011
    length 9.84055
    axis -0.001389 0.000121418 2.40972e-006 xyz
    dof rx ry rz
  end
  begin
    id 8
    name Spine1
    direction 0 0 0
    length 0
    axis -0.001389 0.000121451 1.30017e-006 xyz
    dof rx ry rz
  end
  begin
    id 9
    name HEadDummy
    direction -0.00347485 0.950688 -0.310128
    length 8.00997
    axis -0.001389 0.000121451 1.30017e-006 xyz
  end
  begin
    id 10
    name HEad
    direction -0.0222688 0.980941 0.193023
    length 5.12695
    axis -0.001389 0.000121451 1.30017e-006 xyz
    dof rx ry rz
  end
  begin
    id 11
    name LeftShoulder1Dummy
    direction 0.988871 0.146793 -0.0242004
    length 3.5792
    axis -0.001389 0.000121451 1.30017e-006 xyz
  end
  begin
    id 12
    name LeftShoulder1
    direction 0.993832 0.108932 0.020779
    length 4.16823
    axis -0.001389 0.000121451 1.30017e-006 xyz
    dof rx ry rz
  end
  begin
    id 13
    name LeftArm
    direction 1 3.44807e-006 -8.31404e-007
    length 9.91437
    axis -23.1894 0.134784 0.967509 xyz
    dof rx ry rz
  end
  begin
    id 14
    name LeftForeArm
    direction 1 3.44842e-006 -8.31581e-007
    length 9.08575
    axis -9.91835 -0.06569 -0.177793 xyz
    dof rx ry rz
  end
  begin
    id 15
    name LeftHand
    direction 0.992938 -0.0411636 0.11126
    length 5.32135
    axis -0.00960232 -0.00340091 0.185173 xyz
    dof rx ry rz
  end
  begin
    id 16
    name RightShoulderDummy
    direction -0.988871 0.146793 -0.0241962
    length 3.5792
    axis -0.001389 0.000121451 1.30017e-006 xyz
  end
  begin
    id 17
    name RightShoulder
    direction -0.993832 0.108933 0.0207785
    length 4.16823
    axis 0.215806 0.000203643 -0.0068026 xyz
    dof rx ry rz
  end
  begin
    id 18
    name RightArm
    direction -1 3.90912e-006 8.31284e-007
    length 9.91437
    axis -23.2009 -0.134239 -0.964101 xyz
    dof rx ry rz
  end
  begin
    id 19
    name RightForeArm
    direction -1 3.90882e-006 8.31502e-007
    length 9.08575
    axis -9.92322 0.0658061 0.178867 xyz
    dof rx ry rz
  end
  begin
    id 20
    name RightHand
    direction -0.992843 -0.0414603 0.112003
    length 5.28593
    axis -0.00960638 0.00330671 -0.185228 xyz
    dof rx ry rz
  end
  begin
    id 21
    name LeftUpLegDummy
    direction 1 -2.30186e-007 -8.31532e-007
    length 4.46685
    axis 0 0 0 xyz
  end
  begin
    id 22
    name LeftUpLeg
    direction -2.30187e-007 -1 6.00931e-010
    length 16.4045
    axis -3.48766 0.00143442 -0.000524262 xyz
    dof rx ry rz
  end
  begin
    id 23
    name LeftLeg
    direction -2.30187e-007 -1 1.6669e-009
    length 17.5097
    axis 3.68178 -0.00654042 -0.000285133 xyz
    dof rx ry rz
  end
  begin
    id 24
    name LeftFoot
    direction 8.31532e-007 -4.54478e-011 1
    length 6.49508
    axis 1.87233e-006 4.66016e-005 -8.6538e-006 xyz
    dof rx ry rz
  end
  begin
    id 25
    name LeftToes
    direction 0.00818058 -0.00485161 0.999955
    length 3.85048
    axis 1.06247e-005 4.65869e-005 -8.65513e-006 xyz
    dof rx ry rz
  end
:hierarchy
  begin
    root RightUpLegDummy SpineDummy LeftUpLegDummy
    RightUpLegDummy RightUpLeg
    RightUpLeg RightLeg
    RightLeg RightFoot
    RightFoot RightToes
    SpineDummy Spine
    Spine Spine1
    Spine1 HEadDummy LeftShoulder1Dummy RightShoulderDummy
    HEadDummy HEad
    LeftShoulder1Dummy LeftShoulder1
    LeftShoulder1 LeftArm
    LeftArm LeftForeArm
    LeftForeArm LeftHand
    RightShoulderDummy RightShoulder
    RightShoulder RightArm
    RightArm RightForeArm
    RightForeArm RightHand
    LeftUpLegDummy LeftUpLeg
    LeftUpLeg LeftLeg
    LeftLeg LeftFoot
    LeftFoot LeftToes
  end

:SAMPLES-PER-SECOND 30
:FULLY-SPECIFIED
:DEGREES
125
root  -18.9043 22.5717 6.65068 -137.44 -65.5991 -169.69
RightUpLeg  -38.7748 -11.7814 -12.2476
RightLeg  58.9098 -16.2744 -22.0214
RightFoot  -20.0745 2.18935 12.7012
RightToes  -19.9455 -0.081155 -0.176384
Spine  29.1205 1.6876 -5.37689
Spine1  44.579 7.0973 -4.21348
HEad  -16.6198 -13.7903 22.917
LeftShoulder1  0 -2.42657e-020 -4.95415e-022
LeftArm  -1.45038 -85.1922 -109.907
LeftForeArm  28.1335 -15.6571 -2.82713
LeftHand  0.0197743 -3.48053 -1.02284
RightShoulder  0 2.42657e-020 1.07489e-018
RightArm  35.6028 82.4831 162.282
RightForeArm  36.8748 14.9389 2.68619
RightHand  -2.50403 14.0853 -19.7034
LeftUpLeg  -116.905 -1.76079 -10.0832
LeftLeg  95.4991 0.179734 -5.43133
LeftFoot  -22.4318 0.911278 4.59323
LeftToes  13.8768 1.18758e-006 1.19596e-007
126
root  -19.0613 22.404 6.87389 -136.014 -65.1396 -170.446
RightUpLeg  -39.8508 -11.5621 -12.9268
RightLeg  59.9324 -16.8766 -23.5252
RightFoot  -19.9066 2.28934 13.3695
RightToes  -18.4438 -0.0729545 -0.164194
Spine  29.376 1.6231 -5.24929
Spine1  44.9132 6.97962 -4.16369
HEad  -17.7468 -14.8696 24.6494
LeftShoulder1  0 -2.42657e-020 -4.95415e-022
LeftArm  3.05916 -85.5126 -116.168
LeftForeArm  24.3839 -15.4274 -2.78484
LeftHand  0.0517728 -1.86057 -3.57088
RightShoulder  0 2.42657e-020 1.07489e-018
RightArm  42.6976 82.7162 169.814
RightForeArm  38.3136 14.4134 2.58587
RightHand  -2.53801 14.8736 -18.9015
LeftUpLeg  -117.701 -2.1751 -11.2504
LeftLeg  96.0648 0.239551 -5.57313
LeftFoot  -22.9659 0.980734 4.82506
LeftToes  14.7475 1.18758e-006 1.19596e-007
127
root  -19.2048 22.3682 7.12594 -134.783 -64.4048 -171.093
RightUpLeg  -41.1332 -11.2779 -13.5802
RightLeg  60.9061 -17.6437 -25.2479
RightFoot  -19.3776 2.33468 13.9901
RightToes  -15.2687 -0.0566832 -0.137735
Spine  29.4357 1.56179 -5.22041
Spine1  44.9276 6.90469 -4.32293
HEad  -18.4088 -15.8679 26.5927
LeftShoulder1  0 -2.42657e-020 -4.95415e-022
LeftArm  3.21658 -85.717 -117.808
LeftForeArm  20.3961 -14.9457 -2.69424
LeftHand  0.0783189 -1.05875 -8.88916
RightShoulder  0 2.42657e-020 1.07489e-018
RightArm  45.3228 82.4074 173.903
RightForeArm  40.6702 13.9196 2.49075
RightHand  -2.12806 17.7771 -13.1801
LeftUpLeg  -118.077 -2.55086 -12.1857
LeftLeg  96.0421 0.227133 -5.32783
LeftFoot  -23.3603 1.00451 4.85626
LeftToes  15.4548 1.18758e-006 1.19596e-007
128
root  -19.3452 22.5099 7.42646 -133.857 -63.1496 -171.651
RightUpLeg  -42.6461 -11.0528 -14.2993
RightLeg  61.4822 -17.8298 -25.9698
RightFoot  -19.7744 2.47917 14.5316
RightToes  -9.51151 -0.031013 -0.0876249
Spine  29.1947 1.61625 -5.25808
Spine1  44.6034 6.89398 -4.48248
HEad  -18.8137 -16.9831 28.3642
LeftShoulder1  0 -2.42657e-020 -4.95415e-022
LeftArm  0.939688 -84.7486 -113.38
LeftForeArm  20.3798 -15.5812 -2.81439
LeftHand  0.133317 -1.71422 -9.3009
RightShoulder  0 2.42657e-020 1.07489e-018
RightArm  44.1844 81.7142 166.869
RightForeArm  40.7067 15.0046 2.69439
RightHand  -2.12802 20.5306 -11.3441
LeftUpLeg  -117.807 -2.63218 -13.2196
LeftLeg  95.3079 0.14338 -4.79697
LeftFoot  -23.4527 0.978348 4.71079
LeftToes  16.2849 1.18758e-006 1.19596e-007
129
root  -19.4658 22.7849 7.68796 -134.016 -62.2205 -171.56
RightUpLeg  -43.702 -11.0524 -14.1338
RightLeg  61.2223 -16.6759 -24.3261
RightFoot  -21.562 2.68468 14.409
RightToes  -9.28454 -0.0301052 -0.0855984
Spine  28.7862 1.64957 -5.17808
Spine1  44.1066 6.61613 -4.29706
HEad  -19.0565 -17.9828 30.1119
LeftShoulder1  0 -2.42657e-020 -4.95415e-022
LeftArm  -4.53635 -83.29 -105.959
LeftForeArm  21.631 -16.5603 -3.00106
LeftHand  0.101442 -1.27749 -9.50145
RightShoulder  0 2.42657e-020 1.07489e-018
RightArm  39.7641 80.1392 156.092
RightForeArm  43.7545 16.8778 3.04731
RightHand  -2.21035 18.1559 -13.4035
LeftUpLeg  -116.768 -2.69871 -13.3656
LeftLeg  93.9952 0.0283051 -3.91104
LeftFoot  -23.4116 0.896778 4.3262
LeftToes  16.9235 1.18758e-006 1.19596e-007
130
root  -19.5394 23.1802 7.91935 -134.632 -61.114 -171.325
RightUpLeg  -44.7805 -10.3168 -13.5639
RightLeg  61.6891 -15.6378 -23.3906
RightFoot  -22.4414 2.7286 14.0694
RightToes  -9.9091 -0.028443 -0.0911661
Spine  28.2774 1.74969 -5.05734
Spine1  43.5158 6.43966 -4.0226
HEad  -19.0574 -18.876 31.571
LeftShoulder1  0 -2.42657e-020 -4.95415e-022
LeftArm  -9.12388 -81.2582 -100.751
LeftForeArm  21.1801 -18.0662 -3.29214
LeftHand  0.00768603 -0.113716 -8.62937
RightShoulder  0 2.42657e-020 1.07489e-018
RightArm  33.5416 78.2367 145.523
RightForeArm  40.8591 19.2571 3.51535
RightHand  -2.58781 17.6949 -16.1484
LeftUpLeg  -115.199 -2.32781 -13.5272
LeftLeg  92.1743 -0.0779729 -3.22082
LeftFoot  -23.0807 0.814897 3.98941
LeftToes  17.1034 1.18758e-006 1.19596e-007
131
root  -19.5975 23.6445 8.13054 -135.394 -60.0885 -171.555
RightUpLeg  -45.327 -9.68324 -12.6265
RightLeg  62.8707 -15.1298 -23.6926
RightFoot  -23.3683 2.9125 14.3942
RightToes  -8.74059 -0.0266298 -0.0807271
Spine  27.8545 1.77843 -4.93299
Spine1  43.0485 6.17919 -3.71831
HEad  -18.9488 -19.5124 32.8998
LeftShoulder1  0 -2.42657e-020 -4.95415e-022
LeftArm  -12.8596 -79.2235 -96.1792
LeftForeArm  20.1005 -19.2578 -3.52616
LeftHand  -0.0417813 0.576183 -8.56175
RightShoulder  0 2.42657e-020 1.07489e-018
RightArm  28.6015 76.2699 137.298
RightForeArm  41.3358 21.2851 3.92168
RightHand  -2.82868 16.5452 -18.9123
LeftUpLeg  -112.81 -1.87012 -13.8743
LeftLeg  89.9286 -0.170839 -2.70716
LeftFoot  -22.5015 0.741824 3.72787
LeftToes  16.6761 1.18758e-006 1.19596e-007
132
root  -19.5897 24.208 8.33471 -135.95 -59.2449 -172.143
RightUpLeg  -45.8151 -9.69592 -10.9808
RightLeg  64.0698 -14.5155 -23.8599
RightFoot  -24.2027 3.06055 14.5827
RightToes  -8.23763 -0.0260217 -0.076205
Spine  27.2495 1.68116 -4.73418
Spine1  42.2995 5.70293 -3.37152
HEad  -18.7264 -19.6855 33.6474
LeftShoulder1  0 -2.42657e-020 -4.95415e-022
LeftArm  -16.5215 -76.9176 -92.0003
LeftForeArm  19.4471 -20.2372 -3.72113
LeftHand  -0.0387502 0.475585 -9.54704
RightShoulder  0 2.42657e-020 1.07489e-018
RightArm  22.4636 73.8763 128.481
RightForeArm  40.6547 23.8248 4.44903
RightHand  -3.06024 16.1409 -20.9753
LeftUpLeg  -110.086 -1.21352 -14.7004
LeftLeg  87.0699 -0.307556 -2.71074
LeftFoot  -21.494 0.69335 3.65182
LeftToes  17.2984 1.18758e-006 1.19596e-007
133
root  -19.6377 24.757 8.53132 -136.914 -58.0943 -173.44
RightUpLeg  -45.2978 -10.5515 -9.40952
RightLeg  65.0161 -13.2201 -22.7732
RightFoot  -25.0707 3.06314 14.0921
RightToes  -8.82087 -0.0282755 -0.0814473
Spine  27.0521 1.5451 -4.69032
Spine1  42.1576 5.19464 -3.10522
HEad  -18.4849 -19.6495 33.6688
LeftShoulder1  0 -2.42657e-020 -4.95415e-022
LeftArm  -18.7131 -74.1965 -88.5457
LeftForeArm  18.9201 -21.9172 -4.06168
LeftHand  -0.0644441 0.737746 -10.258
RightShoulder  0 2.42657e-020 1.07489e-018
RightArm  18.0371 71.2389 121.445
RightForeArm  40.2549 26.4724 5.0218
RightHand  -3.29248 15.7653 -23.0931
LeftUpLeg  -106.106 -0.539894 -15.6076
LeftLeg  84.0405 -0.396362 -2.37244
LeftFoot  -20.621 0.631676 3.47123
LeftToes  15.9925 1.18758e-006 1.19596e-007
134
root  -19.589 25.4259 8.71284 -137.88 -57.0884 -173.971
RightUpLeg  -45.4884 -11.6564 -6.69818
RightLeg  65.2692 -12.0931 -21.2502
RightFoot  -25.492 2.89724 13.1358
RightToes  -10.9509 -0.0369568 -0.100391
Spine  26.0916 1.38885 -4.56413
Spine1  40.8855 4.73549 -3.05023
HEad  -17.7887 -19.3012 33.7176
LeftShoulder1  0 -2.42657e-020 -4.95415e-022
LeftArm  -19.8505 -70.8681 -85.3852
LeftForeArm  17.9279 -23.6391 -4.4194
LeftHand  -0.086836 0.930988 -10.9458
RightShoulder  0 2.42657e-020 1.07489e-018
RightArm  14.9194 67.8554 116.062
RightForeArm  41.077 28.7711 5.54016
RightHand  -3.49594 15.1332 -25.5176
LeftUpLeg  -102.738 0.251239 -15.9623
LeftLeg  80.4585 -0.485469 -2.09448
LeftFoot  -19.2203 0.542394 3.20255
LeftToes  15.6009 1.18758e-006 1.19596e-007
